<?xml version="1.0" encoding="UTF-8" standalone="no"?>
<svg
   xmlns:dc="http://purl.org/dc/elements/1.1/"
   xmlns:cc="http://creativecommons.org/ns#"
   xmlns:rdf="http://www.w3.org/1999/02/22-rdf-syntax-ns#"
   xmlns:svg="http://www.w3.org/2000/svg"
   xmlns="http://www.w3.org/2000/svg"
   xmlns:sodipodi="http://sodipodi.sourceforge.net/DTD/sodipodi-0.dtd"
   xmlns:inkscape="http://www.inkscape.org/namespaces/inkscape"
   aria-hidden="true"
   focusable="false"
   data-prefix="fas"
   data-icon="stop-circle"
   class="svg-inline--fa fa-stop-circle fa-w-16"
   role="img"
   viewBox="0 0 1024 512"
   version="1.1"
   id="svg4"
   sodipodi:docname="reset-solid.svg"
   width="100"
   height="35"
   inkscape:version="0.92.3 (2405546, 2018-03-11)">
  <metadata
     id="metadata10">
    <rdf:RDF>
      <cc:Work
         rdf:about="">
        <dc:format>image/svg+xml</dc:format>
        <dc:type
           rdf:resource="http://purl.org/dc/dcmitype/StillImage" />
        <dc:title></dc:title>
      </cc:Work>
    </rdf:RDF>
  </metadata>
  <defs
     id="defs8" />
  <sodipodi:namedview
     pagecolor="#ffffff"
     bordercolor="#666666"
     borderopacity="1"
     objecttolerance="10"
     gridtolerance="10"
     guidetolerance="10"
     inkscape:pageopacity="0"
     inkscape:pageshadow="2"
     inkscape:window-width="1853"
     inkscape:window-height="1025"
     id="namedview6"
     showgrid="false"
     inkscape:zoom="0.4609375"
     inkscape:cx="256"
     inkscape:cy="256"
     inkscape:window-x="67"
     inkscape:window-y="27"
     inkscape:window-maximized="1"
     inkscape:current-layer="svg4" />
  <path
     style="fill:#ffffff;fill-opacity:1;stroke:none;stroke-width:32.07990646;stroke-linecap:square;stroke-miterlimit:4;stroke-dasharray:none;stroke-opacity:1"
     d="M 100 0 C 44.6 0 0 44.6 0 100 L 0 412 C 0 467.4 44.6 512 100 512 L 924 512 C 979.4 512 1024 467.4 1024 412 L 1024 100 C 1024 44.6 979.4 0 924 0 L 100 0 z M 521.7793 121.12891 C 536.17069 121.12891 549.19162 122.72769 560.8418 125.92578 C 572.72041 128.89543 581.40233 132.20832 586.88477 135.86328 L 576.26172 162.93164 C 571.46459 159.96199 564.26809 157.10645 554.67383 154.36523 C 545.308 151.39558 534.34321 149.91211 521.7793 149.91211 C 515.38312 149.91211 509.44533 150.59619 503.96289 151.9668 C 498.48045 153.33741 493.68214 155.39355 489.57031 158.13477 C 485.45849 160.87598 482.14755 164.41755 479.63477 168.75781 C 477.35042 172.86964 476.20703 177.78132 476.20703 183.49219 C 476.20703 189.88836 477.46378 195.25544 479.97656 199.5957 C 482.48935 203.93596 486.03091 207.81957 490.59961 211.24609 C 495.16831 214.44418 500.42202 217.41503 506.36133 220.15625 C 512.52907 222.89747 519.26821 225.63769 526.57812 228.37891 C 536.85769 232.49073 546.22174 236.60302 554.67383 240.71484 C 563.35435 244.82667 570.77953 249.73835 576.94727 255.44922 C 583.34344 261.16009 588.25512 268.01259 591.68164 276.00781 C 595.10816 283.7746 596.82031 293.25396 596.82031 304.44727 C 596.82031 325.23484 589.16842 341.22661 573.86328 352.41992 C 558.78658 363.61323 537.42772 369.20898 509.78711 369.20898 C 500.42128 369.20898 491.74131 368.52295 483.74609 367.15234 C 475.97931 366.01017 469.01149 364.64006 462.84375 363.04102 C 456.67601 361.21354 451.30893 359.38607 446.74023 357.55859 C 442.39997 355.50268 438.97177 353.79053 436.45898 352.41992 L 446.39648 325.00781 C 451.65049 327.97747 459.64638 331.2884 470.38281 334.94336 C 481.11925 338.59832 494.25354 340.42578 509.78711 340.42578 C 544.5092 340.42578 561.87109 328.54824 561.87109 304.79102 C 561.87109 297.4811 560.27231 291.31268 557.07422 286.28711 C 554.10457 281.03311 549.99228 276.57879 544.73828 272.92383 C 539.48428 269.04044 533.43117 265.72755 526.57812 262.98633 C 519.95351 260.24511 512.87038 257.50489 505.33203 254.76367 C 496.65151 251.79402 488.42889 248.48113 480.66211 244.82617 C 472.89532 240.94278 466.15618 236.48846 460.44531 231.46289 C 454.73444 226.20889 450.16676 220.04046 446.74023 212.95898 C 443.54215 205.8775 441.94141 197.3109 441.94141 187.25977 C 441.94141 166.4722 449.02454 150.25369 463.1875 138.60352 C 477.35046 126.95334 496.8799 121.12891 521.7793 121.12891 z M 106.75391 124.21289 C 140.10539 124.21289 165.46122 130.49468 182.82227 143.05859 C 200.41175 155.62251 209.20703 174.35451 209.20703 199.25391 C 209.20703 215.01591 204.97943 228.49224 196.52734 239.68555 C 188.30369 250.87885 176.08411 259.21678 159.86523 264.69922 C 163.52019 269.26792 168.08788 275.32298 173.57031 282.86133 C 179.28118 290.17124 185.10562 298.39386 191.04492 307.53125 C 196.98423 316.44021 202.81061 325.80621 208.52148 335.62891 C 214.46079 345.4516 219.48583 354.93097 223.59766 364.06836 L 187.27734 364.06836 C 182.70865 355.38784 177.68165 346.59451 172.19922 337.68555 C 166.94522 328.77659 161.57814 320.32334 156.0957 312.32812 C 150.61327 304.10447 145.13087 296.45257 139.64844 289.37109 C 134.39444 282.28961 129.59612 276.12119 125.25586 270.86719 C 122.28621 271.09562 119.20199 271.21094 116.00391 271.21094 L 106.75391 271.21094 L 76.943359 271.21094 L 76.943359 364.06836 L 43.705078 364.06836 L 43.705078 130.03711 C 53.070906 127.75276 63.464977 126.26929 74.886719 125.58398 C 86.536895 124.67025 97.159643 124.21289 106.75391 124.21289 z M 259.20117 126.61133 L 404.14258 126.61133 L 404.14258 155.05078 L 292.43945 155.05078 L 292.43945 225.63867 L 391.80859 225.63867 L 391.80859 253.39258 L 292.43945 253.39258 L 292.43945 335.62891 L 412.70898 335.62891 L 412.70898 364.06836 L 259.20117 364.06836 L 259.20117 126.61133 z M 636.6543 126.61133 L 781.5957 126.61133 L 781.5957 155.05078 L 669.89062 155.05078 L 669.89062 225.63867 L 769.25977 225.63867 L 769.25977 253.39258 L 669.89062 253.39258 L 669.89062 335.62891 L 790.16211 335.62891 L 790.16211 364.06836 L 636.6543 364.06836 L 636.6543 126.61133 z M 808.08789 126.61133 L 990.7207 126.61133 L 990.7207 155.39453 L 916.02344 155.39453 L 916.02344 364.06836 L 882.78516 364.06836 L 882.78516 155.39453 L 808.08789 155.39453 L 808.08789 126.61133 z M 109.49414 153.33789 C 95.331181 153.33789 84.481709 153.67993 76.943359 154.36523 L 76.943359 243.79883 L 100.58594 243.79883 C 112.00768 243.79883 122.28643 243.22811 131.42383 242.08594 C 140.56122 240.94376 148.21507 238.77231 154.38281 235.57422 C 160.77899 232.37613 165.68871 227.92181 169.11523 222.21094 C 172.54176 216.27163 174.25586 208.50442 174.25586 198.91016 C 174.25586 190.0012 172.54176 182.57798 169.11523 176.63867 C 165.68871 170.69937 161.00571 166.01637 155.06641 162.58984 C 149.35554 159.16332 142.50303 156.76514 134.50781 155.39453 C 126.74103 154.02392 118.4031 153.33789 109.49414 153.33789 z "
     id="rect826-1" />
</svg>
